# xmcd
#
# Track frame offsets:
#	150
#	26078
#	44403
#	54090
#	80125
#	98938
#	124140
#	146145
#	161413
#	181963
#	207860
#
# Disc length: 2992 seconds
#
# Revision: 2
# Processed by: cddbd v1.5.2PL0 Copyright (c) Steve Scherf et al.
# Submitted via: audiograbber 1.83.01
#
DISCID=970bae0b
DTITLE=Various Artist - True Blues
DYEAR=1995
DGENRE=Blues
TTITLE0=Nobody Knows You When You Down And Out - Gary Wiggins and CC
TTITLE1=Meet Me In St.Louis - Black Cat Bone fet. Chris Farlowe
TTITLE2=Hold Me Baby - Little Willie Littlefield
TTITLE3=Make Me A Pallet On THe Floor - The Chicago All Stars
TTITLE4=Long Gray Mare - The Big Four Blues Band
TTITLE5=Eva - The Chicago All Stars and Louisiana Red
TTITLE6=Bullie's Soulfood Place - Katie Webster and Black Cat Bone
TTITLE7=Jack The Ripper - Errol Dixon
TTITLE8=I Don't Know - Champon Jack Dupree
TTITLE9=My Friend Carey - Carey Bell and Louisiana Red
TTITLE10=A Hundred Years From Today - Floyd McDaniel and Erwin Helfer
EXTD=
EXTT0=
EXTT1=
EXTT2=
EXTT3=
EXTT4=
EXTT5=
EXTT6=
EXTT7=
EXTT8=
EXTT9=
EXTT10=
PLAYORDER=
